<svg height="512" viewBox="0 0 55 58" width="512" xmlns="http://www.w3.org/2000/svg"><g id="Page-1" fill="none" fill-rule="evenodd"><g id="035---Edit-Image" fill-rule="nonzero"><path id="Shape" d="m37 58h-29c-4.418278 0-8-3.581722-8-8v-42c0-4.418278 3.581722-8 8-8h36c4.418278 0 8 3.581722 8 8v22.06z" fill="#ecf0f1"/><path id="Shape" d="m12 54h-3c-.55228475 0-1-.4477153-1-1s.44771525-1 1-1h3c.5522847 0 1 .4477153 1 1s-.4477153 1-1 1z" fill="#bdc3c7"/><path id="Shape" d="m24.56 54h-6.56c-.5522847 0-1-.4477153-1-1s.4477153-1 1-1h6.56c.5522847 0 1 .4477153 1 1s-.4477153 1-1 1z" fill="#bdc3c7"/><path id="Shape" d="m55 40c.0070615 8.3805605-5.7658852 15.6591372-13.9279254 17.560438-8.1620401 1.9013009-16.5571888-2.0768985-20.2543017-9.5978825s-1.7196059-16.5981013 4.7709726-21.8996326c6.4905786-5.3015314 15.7797565-5.4270891 22.4112545-.3029229 4.4111525 3.4077352 6.9959105 8.6658714 7 14.24z" fill="#e64c3c"/><path id="Shape" d="m49.32 33.34c-1.3023163-2.3923022-3.2676978-4.3576837-5.66-5.66-1.6811863-.9118486-3.5338565-1.4635629-5.44-1.62l-7.55 7.55h-.01v.01l-2.1 9.86-1.03 4.8c-.0664756.3315959.0372532.674469.2763921.9136079s.582012.3428677.9136079.2763921l4.8-1.03 9.86-2.1.01-.01 7.55-7.55c-.1564371-1.9061435-.7081514-3.7588137-1.62-5.44z" fill="#f29c1f"/><path id="Shape" d="m48 20.083v5.677c-5.4298415-4.1999545-12.7763982-4.9441915-18.9382258-1.9185217s-10.0650124 9.2939178-10.0617742 16.1585217h-11c-2.209139 0-4-1.790861-4-4v-3.917l10.79-10.791c.3934549-.3888915 1.0265451-.3888915 1.42 0l2.08 2.08c.3930079.3899779 1.0269921.3899779 1.42 0l15.08-15.08c.3934549-.38889147 1.0265451-.38889147 1.42 0z" fill="#5d4c72"/><path id="Shape" d="m33.52 48.44-4.8 1.03c-.3315959.0664756-.674469-.0372532-.9136079-.2763921s-.3428677-.582012-.2763921-.9136079l1.03-4.8c2.7258036.0323892 4.9276108 2.2341964 4.96 4.96z" fill="#393f4a"/><path id="Shape" d="m43.39 46.33-.01.01-9.86 2.1c-.0323892-2.7258036-2.2341964-4.9276108-4.96-4.96l2.1-9.86.01-.01 6.33.73.73 4.93 4.93.73z" fill="#fdd7ad"/><path id="Shape" d="m30.67 33.61-.01.01v-.01z" fill="#f3d55b"/><path id="Shape" d="m43.38 46.34-.02.02" fill="#f3d55b"/><path id="Shape" d="m49.32 33.34-6.66 6.66-4.93-.73-.73-4.93 6.66-6.66c2.3923022 1.3023163 4.3576837 3.2676978 5.66 5.66z" fill="#f0c419"/><path id="Shape" d="m30.66 33.62-.02.02" fill="#f3d55b"/><path id="Shape" d="m48 8v14l-11.79-11.79c-.3930079-.38997787-1.0269921-.38997787-1.42 0l-15.08 15.08c-.3930079.3899779-1.0269921.3899779-1.42 0l-2.08-2.08c-.3930079-.3899779-1.0269921-.3899779-1.42 0l-10.79 10.79v-26c0-2.209139 1.790861-4 4-4h36c2.209139 0 4 1.790861 4 4z" fill="#f3d55b"/><circle id="Oval" cx="13" cy="13" fill="#f9eab0" r="4"/></g></g></svg>